<svg xmlns="http://www.w3.org/2000/svg" width="2in" height="2in" viewBox="0 0 144 144"><path fill="#f5c23c" d="M30.5 105.3a3.5 3.5 0 0 1-2.6-3.2V42.3a3.5 3.5 0 0 1 3.7-3.7l80.7.4a3.4 3.4 0 0 1 3.8 3.7c0 20-.1 38.8 0 58.8a3.7 3.7 0 0 1-3.9 3.9zm74.2-8.3L84.1 72.9c-.8-.9-2.8-.7-3.8.1l-6.8 5.7c-1.6 1.4-2.7.8-4.3-.5l-6.1-4.9c-.9-.8-2.6-.3-3.4.6-6.9 7.7-13.7 15.4-20.5 23.2-1 1.2-.6 1.9.8 1.9h64.2c1 0 1.7-.6.5-2zM73.1 71c9.3-7.8 24.9-20.6 29.6-24.5a.7.7 0 0 0-.4-1.2L41.6 45a.7.7 0 0 0-.5 1.2c4.6 3.9 19.9 16.9 29 24.8a2.4 2.4 0 0 0 3 0zm-18.5-5.4L35.4 48.9c-.4-.4-1.1 1.1-1.1 1.6v41.1a.7.7 0 0 0 1.2.4L56 68.9c.8-1-.4-2.5-1.4-3.3zm33.7 3.2l20.2 23.5c.8.9 1.2-.4 1.2-1V50.8c0-.6-1.2-1.5-1.7-1.1L89.2 65.5c-1 .9-1.7 2.3-.9 3.3z"/></svg>