<svg xmlns="http://www.w3.org/2000/svg" width="2in" height="2in" viewBox="0 0 144 144"><path fill="#fff" d="M59 130.1s.3-32.7.5-50.1c0-1.6-.5-2-2.1-2H42.6c-1.6 0-2-.5-2-2 .1-6.1.2-12.1.2-18.2 0-1.6.5-2.2 2.1-2.1l14 .2c2.8 0 2.7 0 2.8-2.7.3-7 0-13.9 1.1-20.6 1.4-9.2 6.8-16 15.8-19.2s18.4-1.8 27.6-.9c1.6.1 1.4 1.2 1.4 2.2 0 5.2-.2 10.4-.1 15.6 0 2-.9 2.5-2.7 2.5a118.1 118.1 0 0 0-11.9 0c-4.3.1-7.2 2.4-7.6 6.6s-.4 8.5-.5 12.7 0 4 4 4.1l15.6.2c.9 0 2-.2 1.8 1.3-.8 6.5-1.8 13.1-2.7 19.6a1.8 1.8 0 0 1-2.1 1.5c-4.8-.1-9.7 0-14.6-.3-1.8-.1-2.6.4-2.6 2.4-.1 17-.5 49.4-.5 49.4z"/></svg>