<svg xmlns="http://www.w3.org/2000/svg" width="2in" height="2in" viewBox="0 0 144 144"><path fill="#f5c23c" d="M97.7 20.6l-3-.2c-6.8-.7-13.9-1.4-21.2 1.2A23 23 0 0 0 58 40.5a103.2 103.2 0 0 0-.8 12.4c0 1 0 2.1-.1 3.1h-9.6a5.7 5.7 0 0 0-4.1 1.6 5.8 5.8 0 0 0-1.7 4.1c0 4.7-.1 9.7-.2 14.7a6.1 6.1 0 0 0 1.5 4.2 5.6 5.6 0 0 0 4.1 1.5h9.7c-.1 11.6-.3 29.1-.3 34.5a7.4 7.4 0 0 0 2.1 5.3 7.7 7.7 0 0 0 5.4 2.2h11.8a7.5 7.5 0 0 0 7.5-7.4c.1-6.9.3-23.4.3-34.4h9.9a5.6 5.6 0 0 0 4.1-1.5c1.1-1.1 1.4-2.6 1.6-4.4.7-4.9 1.3-9.7 2-14 .4-2.2-.1-3.7-.8-4.5a5.4 5.4 0 0 0-4.3-1.8H83.9a7.6 7.6 0 0 0 .1-1.5q0-4 .3-7.8c.2-1.1.4-1.8 2.4-1.9s5.9 0 9.4.1a6.7 6.7 0 0 0 4.7-1.6 6.1 6.1 0 0 0 1.6-4.5v-8.5c.1-1.3.1-2.6.1-3.9v-.2a5.2 5.2 0 0 0-4.8-5.7zm-3.3 9.7v5.5a1.3 1.3 0 0 1-1.3 1.3h-6.6c-5.7.2-9.5 3.6-10.1 9a83.2 83.2 0 0 0-.4 8.5c0 .7-.1 1.5-.1 2.2s-.1 4.2 1.5 5.8 3.5 1.6 5.7 1.7h7.8a1.7 1.7 0 0 1 1.6 1.8c-.2 2.4-.6 4.7-1 7.1a1.5 1.5 0 0 1-1.6 1.3h-8.1a5.9 5.9 0 0 0-4.5 1.5 6.3 6.3 0 0 0-1.7 4.4c0 9.2-.2 24-.3 32.7a3.2 3.2 0 0 1-3.3 3.2h-4.2a3.3 3.3 0 0 1-3.3-3.3c.1-8.2.2-23.5.4-33.1a5.6 5.6 0 0 0-1.5-4.1 6 6 0 0 0-4.2-1.5H51a1.4 1.4 0 0 1-1.4-1.4c0-2.5.1-5 .1-7.4a1.3 1.3 0 0 1 1.4-1.5h7.7c4.3.1 6.1-1.6 6.3-5.9 0-1.7.1-3.3.1-4.9a102.6 102.6 0 0 1 .7-11.4c1-6.2 4.4-10.4 10.3-12.5s11.2-1.5 17.3-.9a.9.9 0 0 1 .9 1z"/></svg>