<svg xmlns="http://www.w3.org/2000/svg"><symbol id="email" viewBox="0 0 144 144"><path fill="#f5c23c" d="M30.5 105.3a3.5 3.5 0 0 1-2.6-3.2V42.3a3.5 3.5 0 0 1 3.7-3.7l80.7.4a3.4 3.4 0 0 1 3.8 3.7c0 20-.1 38.8 0 58.8a3.7 3.7 0 0 1-3.9 3.9zm74.2-8.3L84.1 72.9c-.8-.9-2.8-.7-3.8.1l-6.8 5.7c-1.6 1.4-2.7.8-4.3-.5l-6.1-4.9c-.9-.8-2.6-.3-3.4.6-6.9 7.7-13.7 15.4-20.5 23.2-1 1.2-.6 1.9.8 1.9h64.2c1 0 1.7-.6.5-2zM73.1 71c9.3-7.8 24.9-20.6 29.6-24.5a.7.7 0 0 0-.4-1.2L41.6 45a.7.7 0 0 0-.5 1.2c4.6 3.9 19.9 16.9 29 24.8a2.4 2.4 0 0 0 3 0zm-18.5-5.4L35.4 48.9c-.4-.4-1.1 1.1-1.1 1.6v41.1a.7.7 0 0 0 1.2.4L56 68.9c.8-1-.4-2.5-1.4-3.3zm33.7 3.2l20.2 23.5c.8.9 1.2-.4 1.2-1V50.8c0-.6-1.2-1.5-1.7-1.1L89.2 65.5c-1 .9-1.7 2.3-.9 3.3z"/></symbol><symbol id="facebook" viewBox="0 0 144 144"><path fill="#f5c23c" d="M97.7 20.6l-3-.2c-6.8-.7-13.9-1.4-21.2 1.2A23 23 0 0 0 58 40.5a103.2 103.2 0 0 0-.8 12.4c0 1 0 2.1-.1 3.1h-9.6a5.7 5.7 0 0 0-4.1 1.6 5.8 5.8 0 0 0-1.7 4.1c0 4.7-.1 9.7-.2 14.7a6.1 6.1 0 0 0 1.5 4.2 5.6 5.6 0 0 0 4.1 1.5h9.7c-.1 11.6-.3 29.1-.3 34.5a7.4 7.4 0 0 0 2.1 5.3 7.7 7.7 0 0 0 5.4 2.2h11.8a7.5 7.5 0 0 0 7.5-7.4c.1-6.9.3-23.4.3-34.4h9.9a5.6 5.6 0 0 0 4.1-1.5c1.1-1.1 1.4-2.6 1.6-4.4.7-4.9 1.3-9.7 2-14 .4-2.2-.1-3.7-.8-4.5a5.4 5.4 0 0 0-4.3-1.8H83.9a7.6 7.6 0 0 0 .1-1.5q0-4 .3-7.8c.2-1.1.4-1.8 2.4-1.9s5.9 0 9.4.1a6.7 6.7 0 0 0 4.7-1.6 6.1 6.1 0 0 0 1.6-4.5v-8.5c.1-1.3.1-2.6.1-3.9v-.2a5.2 5.2 0 0 0-4.8-5.7zm-3.3 9.7v5.5a1.3 1.3 0 0 1-1.3 1.3h-6.6c-5.7.2-9.5 3.6-10.1 9a83.2 83.2 0 0 0-.4 8.5c0 .7-.1 1.5-.1 2.2s-.1 4.2 1.5 5.8 3.5 1.6 5.7 1.7h7.8a1.7 1.7 0 0 1 1.6 1.8c-.2 2.4-.6 4.7-1 7.1a1.5 1.5 0 0 1-1.6 1.3h-8.1a5.9 5.9 0 0 0-4.5 1.5 6.3 6.3 0 0 0-1.7 4.4c0 9.2-.2 24-.3 32.7a3.2 3.2 0 0 1-3.3 3.2h-4.2a3.3 3.3 0 0 1-3.3-3.3c.1-8.2.2-23.5.4-33.1a5.6 5.6 0 0 0-1.5-4.1 6 6 0 0 0-4.2-1.5H51a1.4 1.4 0 0 1-1.4-1.4c0-2.5.1-5 .1-7.4a1.3 1.3 0 0 1 1.4-1.5h7.7c4.3.1 6.1-1.6 6.3-5.9 0-1.7.1-3.3.1-4.9a102.6 102.6 0 0 1 .7-11.4c1-6.2 4.4-10.4 10.3-12.5s11.2-1.5 17.3-.9a.9.9 0 0 1 .9 1z"/></symbol><symbol id="instagram" viewBox="0 0 144 144"><path fill="#f5c23c" d="M118.5 51.6c-.3-6.1-1.9-11.8-5.9-16.7a25.7 25.7 0 0 0-3.3-3.3 20 20 0 0 0-6.4-3.9 46.1 46.1 0 0 0-14.3-2.4c-7.9-.2-15.8-.1-23.7-.1-5.8 0-11.6-.1-17.4.8-12.1 1.7-20.6 10.7-21.8 22.9-.8 8.5-.5 17-.5 25.5 0 6.7-.1 13.5.5 20.2 1.2 13.2 10.5 22.5 23.7 23.6a125.3 125.3 0 0 0 15 .5c10.2 0 20.3.5 30.4-.5a24.9 24.9 0 0 0 17.5-8.7 23.9 23.9 0 0 0 3.9-6.5 36.8 36.8 0 0 0 2.4-14.3c.3-12.4.4-24.7-.1-37.1zm-23.6 58.1a80.4 80.4 0 0 1-12 .6H56.5a36.9 36.9 0 0 1-8.2-.6 17.4 17.4 0 0 1-8.7-4c-3.3-3-4.7-6.8-5.3-11.1a72.6 72.6 0 0 1-.6-9.3c0-4.4 0-8.8-.1-13.2s0-10.4.2-15.6a39.4 39.4 0 0 1 1.3-10.8c1.9-5.9 5.9-9.4 11.7-10.9a40.7 40.7 0 0 1 11-1h29.7a38.3 38.3 0 0 1 9.5.9c7 1.8 11.1 6.3 12.4 13.3.9 4.3.8 8.6.9 13 0 8.8 0 17.7-.1 26.6-.1 4.5-.3 9.2-2.4 13.4s-7.3 7.8-12.9 8.7z"/><path fill="#f5c23c" d="M92.3 59.1a23.9 23.9 0 0 0-26.7-10.3C55.9 51.3 48.3 60.7 48 70.2a23.2 23.2 0 0 0 4.6 16.1c5.9 7.6 13.7 10.9 23.2 9.4 7.6-1.1 13.3-5.3 17.1-12a17.4 17.4 0 0 0 2.6-6.5 23.5 23.5 0 0 0-3.2-18.1zM61.5 83.4c-4-3.5-5.4-8-5-13.2S60 60.6 65 58.1s11.5-2.2 16.7 1.8A15.4 15.4 0 0 1 86 78.7c-5 9.6-16.6 11.8-24.5 4.7zM97 52.6a5.6 5.6 0 0 0 5.6-5.6 5.7 5.7 0 1 0-11.3 0 5.6 5.6 0 0 0 5.7 5.6z"/></symbol><symbol id="location" viewBox="0 0 144 144"><path fill="#f5c23c" d="M72 120.7a5.3 5.3 0 0 1-4.3-2.2c-2.7-3.7-11.8-16.3-16.3-23.7C45.6 85 41.8 77 39.3 69.1A34.6 34.6 0 0 1 68 23.5h8.1a34.6 34.6 0 0 1 30.1 39.1 38.4 38.4 0 0 1-2 8.1A110.4 110.4 0 0 1 97 87c-5.4 10-17.2 26.6-20.7 31.5a5.3 5.3 0 0 1-4.3 2.2zm-1.3-89.9h-1.9A27.1 27.1 0 0 0 47 47.6a27.5 27.5 0 0 0-.6 19.2c2.4 7.4 5.9 14.8 11.5 24.1 3.1 5.2 8.8 13.3 12.6 18.6a1.8 1.8 0 0 0 2.9 0c4.8-6.7 12.9-18.6 16.9-26a97 97 0 0 0 6.8-15.2 49.5 49.5 0 0 0 1.7-6.6 26.3 26.3 0 0 0-6.1-21.1A25.9 25.9 0 0 0 75.1 31h-4.4zm1.3 46a18.9 18.9 0 0 1-18.9-18.9A18.9 18.9 0 0 1 72 39a18.9 18.9 0 1 1 0 37.8zm0-30.3a11 11 0 0 0-8 3.4 10.8 10.8 0 0 0-3.3 8A11.3 11.3 0 1 0 72 46.5z"/></symbol><symbol id="telephone" viewBox="0 0 144 144"><path fill="#f5c23c" d="M88.9 121a36.9 36.9 0 0 1-13-2.4 54.2 54.2 0 0 1-14-7.7 86.9 86.9 0 0 1-7.7-6.4c-2.7-2.5-5.3-5.3-8.1-8.4s-4.8-5.7-6.8-8.5a102.2 102.2 0 0 1-5.8-8.8 59.2 59.2 0 0 1-5.4-12.3 40.9 40.9 0 0 1-1.6-7.4 29.6 29.6 0 0 1-.3-7.2A34.8 34.8 0 0 1 28.7 41a30.8 30.8 0 0 1 5.1-8.1 33.8 33.8 0 0 1 4.7-4.5 11.4 11.4 0 0 0 1.7-1.5l1.1-.9a12.2 12.2 0 0 1 5.6-2.9 9.5 9.5 0 0 1 6.1 1.2 17.7 17.7 0 0 1 4.7 4.1c1.4 1.8 2.6 3.6 3.7 5.3l.8 1.4a45.3 45.3 0 0 1 2.9 4.9 19.1 19.1 0 0 1 1.8 5.8 11.6 11.6 0 0 1-3 10 21.3 21.3 0 0 1-2.2 2.1L60.5 59a15.1 15.1 0 0 1-2.6 2l-1.1.9a2.9 2.9 0 0 0-1.3 1.7 6 6 0 0 0 0 1.9 18.4 18.4 0 0 0 1.9 4.7 51.1 51.1 0 0 0 5.2 7.4 92.1 92.1 0 0 0 6.5 7 24.4 24.4 0 0 0 6.1 4.6 6.2 6.2 0 0 0 3.1 1 2.5 2.5 0 0 0 1.7-.6l1-.9a3 3 0 0 1 .8-.8h.1c.6-.7 1.4-1.3 2.1-2h.2a34.7 34.7 0 0 1 2.9-2.5 12 12 0 0 1 6.1-2.3 12.9 12.9 0 0 1 6 .9 20.8 20.8 0 0 1 6 3.6l5.4 4.6c1.1.9 2.2 2 3.3 3.1a15.4 15.4 0 0 1 3.4 5.3 8.9 8.9 0 0 1-1.7 9.2 14.9 14.9 0 0 1-2.1 2.2l-.6.5-1.5 1.4-1.2 1.1a30.7 30.7 0 0 1-5.8 4.2 32.7 32.7 0 0 1-8.9 3.3 35.1 35.1 0 0 1-6.6.7zM48.4 30.4h-.3a4 4 0 0 0-2 1.1l-1 .9-2.1 1.8a41.9 41.9 0 0 0-3.7 3.5 27.2 27.2 0 0 0-3.8 6.1 27 27 0 0 0-2 8.6 37.1 37.1 0 0 0 .2 5.7 49.8 49.8 0 0 0 1.4 6.2 59.6 59.6 0 0 0 4.8 10.9c1.5 2.6 3.3 5.3 5.3 8.1s4 5.2 6.4 7.9a96.9 96.9 0 0 0 7.6 7.9 73.9 73.9 0 0 0 7.1 5.9 50.6 50.6 0 0 0 12.1 6.7 29.9 29.9 0 0 0 10.5 1.9 27.6 27.6 0 0 0 5.1-.5 26.4 26.4 0 0 0 6.8-2.5 29.2 29.2 0 0 0 4.4-3.2l1.3-1.2a8.6 8.6 0 0 0 1.4-1.3l.6-.5 1.5-1.5a1.7 1.7 0 0 0 .4-2 10.6 10.6 0 0 0-1.8-2.7l-2.8-2.7-5.2-4.4a14.6 14.6 0 0 0-4.1-2.4 5.6 5.6 0 0 0-2.7-.5 4.3 4.3 0 0 0-2.2.9 23.9 23.9 0 0 0-2.6 2.1h-.1l-2 1.8h-.1l-.6.6-1.4 1.4a10.1 10.1 0 0 1-6.6 2.4 14.1 14.1 0 0 1-6.5-1.9 35.9 35.9 0 0 1-7.7-5.6c-2.3-2.2-4.6-4.7-7.1-7.6a57.5 57.5 0 0 1-5.9-8.5 21.3 21.3 0 0 1-2.7-7 12.4 12.4 0 0 1 .1-5.1 10.9 10.9 0 0 1 3.9-5.7l1.4-1a12.4 12.4 0 0 0 1.8-1.4l1.3-1.2 1.7-1.6a4.3 4.3 0 0 0 1.1-4 10.8 10.8 0 0 0-1.2-3.6 24.4 24.4 0 0 0-2.4-4.1l-.9-1.5a35.8 35.8 0 0 0-3.1-4.5 10.9 10.9 0 0 0-2.6-2.4 1.7 1.7 0 0 0-1-.3z"/></symbol><symbol id="twitter" viewBox="0 0 144 144"><path fill="#f5c23c" d="M124.9 40.5a4.6 4.6 0 0 0-3.8-1h-.7l-2.4.2a4.4 4.4 0 0 1 .9-1.1 13.7 13.7 0 0 0 1.9-3 3.5 3.5 0 0 0-.9-4.4c-1.4-1.2-2.6-.9-4.2-.4l-2.7 1a25 25 0 0 1-4.2 1.4c-.3.1-.4 0-.6-.2a24.4 24.4 0 0 0-26.3-3.7C72.5 34 67.7 41.7 67.7 52.1v.2l-.7-.2-4.5-.8a53.3 53.3 0 0 1-25.6-13.7c-1.3-1.2-2.5-2.5-3.7-3.8l-1.4-1.5a4 4 0 0 0-3.3-1.4 4 4 0 0 0-2.8 1.9A24.3 24.3 0 0 0 23.8 53a25.2 25.2 0 0 0 1.4 3.3 4.1 4.1 0 0 0-1.5.7 4 4 0 0 0-1.4 3.2 24.3 24.3 0 0 0 5.2 14.9c.9 1.1 1.9 2.1 2.8 3s.2.2.2.3-1.1 2.4-.5 4.2a24.6 24.6 0 0 0 13.2 14.2l-3.1 1.3a37.9 37.9 0 0 1-17.4 2.1 3.7 3.7 0 0 0-4.3 2.4l-.2.3v2.2l.4.4.3.4a5 5 0 0 0 1.3 1.2 62.6 62.6 0 0 0 29.4 9.7H54a65.4 65.4 0 0 0 13.1-1.3 59.7 59.7 0 0 0 34.1-20 64.1 64.1 0 0 0 15.5-42.2.7.7 0 0 1 .3-.6l1.2-.9A26.3 26.3 0 0 0 125 45a4.5 4.5 0 0 0 .7-1.8 2.9 2.9 0 0 0-.8-2.7zm-10.6 6.4l-.8.5c-1.8 1.1-3.8 2.7-3.8 5.8.1 15.9-5.9 29.8-17.7 41.4a51.2 51.2 0 0 1-28.4 14.1 56.3 56.3 0 0 1-15.8.5 49.4 49.4 0 0 1-11.2-2.4 45.6 45.6 0 0 0 18-8.4c2-1.5 2-3.1 1.6-4.2s-1.3-2.5-3.8-2.7a16.7 16.7 0 0 1-13-6.8l3.7-.6c2.1-.4 3.3-1.8 3.2-3.7s-.6-3-3.2-3.6c-6.3-1.7-10.5-5.4-12.5-11.5h.4l4 .6a3.6 3.6 0 0 0 3.9-2.6 3.7 3.7 0 0 0-1.6-4.2c-5.3-3.8-7.7-8.9-7.4-15.5a16.6 16.6 0 0 1 .3-2.2h.2l3.6 3.5a62.3 62.3 0 0 0 24.2 12.9A62.3 62.3 0 0 0 71.8 60a3.5 3.5 0 0 0 2.7-1.1 3.6 3.6 0 0 0 1-2.8 9.9 9.9 0 0 0-.2-1.7 5.9 5.9 0 0 1-.2-1.3 16.5 16.5 0 0 1 7.8-15.9c6.7-4.5 15-3.9 20.6 1.3h.1a7.1 7.1 0 0 0 5.6 1.3 10.7 10.7 0 0 0 2.7-1.2 8.6 8.6 0 0 1 3.1-1.3c-.4.9-1.8 2.3-4 4.3s-1.7 1.5-1.5 2.3l.2.6.4.3c.6.3 1 .2 2.4-.1 3.8-1 5.4-1 6.1-.8a23.2 23.2 0 0 1-4.3 3z"/></symbol></svg>