<svg xmlns="http://www.w3.org/2000/svg" width="2in" height="2in" viewBox="0 0 144 144"><path fill="#f5c23c" d="M118.5 51.6c-.3-6.1-1.9-11.8-5.9-16.7a25.7 25.7 0 0 0-3.3-3.3 20 20 0 0 0-6.4-3.9 46.1 46.1 0 0 0-14.3-2.4c-7.9-.2-15.8-.1-23.7-.1-5.8 0-11.6-.1-17.4.8-12.1 1.7-20.6 10.7-21.8 22.9-.8 8.5-.5 17-.5 25.5 0 6.7-.1 13.5.5 20.2 1.2 13.2 10.5 22.5 23.7 23.6a125.3 125.3 0 0 0 15 .5c10.2 0 20.3.5 30.4-.5a24.9 24.9 0 0 0 17.5-8.7 23.9 23.9 0 0 0 3.9-6.5 36.8 36.8 0 0 0 2.4-14.3c.3-12.4.4-24.7-.1-37.1zm-23.6 58.1a80.4 80.4 0 0 1-12 .6H56.5a36.9 36.9 0 0 1-8.2-.6 17.4 17.4 0 0 1-8.7-4c-3.3-3-4.7-6.8-5.3-11.1a72.6 72.6 0 0 1-.6-9.3c0-4.4 0-8.8-.1-13.2s0-10.4.2-15.6a39.4 39.4 0 0 1 1.3-10.8c1.9-5.9 5.9-9.4 11.7-10.9a40.7 40.7 0 0 1 11-1h29.7a38.3 38.3 0 0 1 9.5.9c7 1.8 11.1 6.3 12.4 13.3.9 4.3.8 8.6.9 13 0 8.8 0 17.7-.1 26.6-.1 4.5-.3 9.2-2.4 13.4s-7.3 7.8-12.9 8.7z"/><path fill="#f5c23c" d="M92.3 59.1a23.9 23.9 0 0 0-26.7-10.3C55.9 51.3 48.3 60.7 48 70.2a23.2 23.2 0 0 0 4.6 16.1c5.9 7.6 13.7 10.9 23.2 9.4 7.6-1.1 13.3-5.3 17.1-12a17.4 17.4 0 0 0 2.6-6.5 23.5 23.5 0 0 0-3.2-18.1zM61.5 83.4c-4-3.5-5.4-8-5-13.2S60 60.6 65 58.1s11.5-2.2 16.7 1.8A15.4 15.4 0 0 1 86 78.7c-5 9.6-16.6 11.8-24.5 4.7zM97 52.6a5.6 5.6 0 0 0 5.6-5.6 5.7 5.7 0 1 0-11.3 0 5.6 5.6 0 0 0 5.7 5.6z"/></svg>