<svg xmlns="http://www.w3.org/2000/svg" width="2in" height="2in" viewBox="0 0 144 144"><path fill="#fff" d="M103.7 48.5a6.7 6.7 0 0 1-6.9-6.6v-.3a6.9 6.9 0 0 1 6.9-6.9 6.9 6.9 0 0 1 6.9 6.9 6.8 6.8 0 0 1-6.9 6.9z"/><path fill="none" stroke="#fff" stroke-miterlimit="10" stroke-width="10.78" d="M95.5 123.5H51.3a29.7 29.7 0 0 1-29.8-29.8V49.5a29.7 29.7 0 0 1 29.8-29.7h44.2a29.7 29.7 0 0 1 29.7 29.7v44.2a29.7 29.7 0 0 1-29.7 29.8z"/><path fill="none" stroke="#fff" stroke-miterlimit="10" stroke-width="10.78" d="M73.4 95.8a24.3 24.3 0 0 1-24.2-24.2 24.3 24.3 0 0 1 24.2-24.1 24.2 24.2 0 0 1 24.1 24.1 24.1 24.1 0 0 1-24.1 24.2z"/></svg>