<svg xmlns="http://www.w3.org/2000/svg" width="2in" height="2in" viewBox="0 0 144 144"><path fill="#f5c23c" d="M72 120.7a5.3 5.3 0 0 1-4.3-2.2c-2.7-3.7-11.8-16.3-16.3-23.7C45.6 85 41.8 77 39.3 69.1A34.6 34.6 0 0 1 68 23.5h8.1a34.6 34.6 0 0 1 30.1 39.1 38.4 38.4 0 0 1-2 8.1A110.4 110.4 0 0 1 97 87c-5.4 10-17.2 26.6-20.7 31.5a5.3 5.3 0 0 1-4.3 2.2zm-1.3-89.9h-1.9A27.1 27.1 0 0 0 47 47.6a27.5 27.5 0 0 0-.6 19.2c2.4 7.4 5.9 14.8 11.5 24.1 3.1 5.2 8.8 13.3 12.6 18.6a1.8 1.8 0 0 0 2.9 0c4.8-6.7 12.9-18.6 16.9-26a97 97 0 0 0 6.8-15.2 49.5 49.5 0 0 0 1.7-6.6 26.3 26.3 0 0 0-6.1-21.1A25.9 25.9 0 0 0 75.1 31h-4.4zm1.3 46a18.9 18.9 0 0 1-18.9-18.9A18.9 18.9 0 0 1 72 39a18.9 18.9 0 1 1 0 37.8zm0-30.3a11 11 0 0 0-8 3.4 10.8 10.8 0 0 0-3.3 8A11.3 11.3 0 1 0 72 46.5z"/></svg>