<svg xmlns="http://www.w3.org/2000/svg" width="2in" height="2in" viewBox="0 0 144 144"><path fill="#f5c23c" d="M88.9 121a36.9 36.9 0 0 1-13-2.4 54.2 54.2 0 0 1-14-7.7 86.9 86.9 0 0 1-7.7-6.4c-2.7-2.5-5.3-5.3-8.1-8.4s-4.8-5.7-6.8-8.5a102.2 102.2 0 0 1-5.8-8.8 59.2 59.2 0 0 1-5.4-12.3 40.9 40.9 0 0 1-1.6-7.4 29.6 29.6 0 0 1-.3-7.2A34.8 34.8 0 0 1 28.7 41a30.8 30.8 0 0 1 5.1-8.1 33.8 33.8 0 0 1 4.7-4.5 11.4 11.4 0 0 0 1.7-1.5l1.1-.9a12.2 12.2 0 0 1 5.6-2.9 9.5 9.5 0 0 1 6.1 1.2 17.7 17.7 0 0 1 4.7 4.1c1.4 1.8 2.6 3.6 3.7 5.3l.8 1.4a45.3 45.3 0 0 1 2.9 4.9 19.1 19.1 0 0 1 1.8 5.8 11.6 11.6 0 0 1-3 10 21.3 21.3 0 0 1-2.2 2.1L60.5 59a15.1 15.1 0 0 1-2.6 2l-1.1.9a2.9 2.9 0 0 0-1.3 1.7 6 6 0 0 0 0 1.9 18.4 18.4 0 0 0 1.9 4.7 51.1 51.1 0 0 0 5.2 7.4 92.1 92.1 0 0 0 6.5 7 24.4 24.4 0 0 0 6.1 4.6 6.2 6.2 0 0 0 3.1 1 2.5 2.5 0 0 0 1.7-.6l1-.9a3 3 0 0 1 .8-.8h.1c.6-.7 1.4-1.3 2.1-2h.2a34.7 34.7 0 0 1 2.9-2.5 12 12 0 0 1 6.1-2.3 12.9 12.9 0 0 1 6 .9 20.8 20.8 0 0 1 6 3.6l5.4 4.6c1.1.9 2.2 2 3.3 3.1a15.4 15.4 0 0 1 3.4 5.3 8.9 8.9 0 0 1-1.7 9.2 14.9 14.9 0 0 1-2.1 2.2l-.6.5-1.5 1.4-1.2 1.1a30.7 30.7 0 0 1-5.8 4.2 32.7 32.7 0 0 1-8.9 3.3 35.1 35.1 0 0 1-6.6.7zM48.4 30.4h-.3a4 4 0 0 0-2 1.1l-1 .9-2.1 1.8a41.9 41.9 0 0 0-3.7 3.5 27.2 27.2 0 0 0-3.8 6.1 27 27 0 0 0-2 8.6 37.1 37.1 0 0 0 .2 5.7 49.8 49.8 0 0 0 1.4 6.2 59.6 59.6 0 0 0 4.8 10.9c1.5 2.6 3.3 5.3 5.3 8.1s4 5.2 6.4 7.9a96.9 96.9 0 0 0 7.6 7.9 73.9 73.9 0 0 0 7.1 5.9 50.6 50.6 0 0 0 12.1 6.7 29.9 29.9 0 0 0 10.5 1.9 27.6 27.6 0 0 0 5.1-.5 26.4 26.4 0 0 0 6.8-2.5 29.2 29.2 0 0 0 4.4-3.2l1.3-1.2a8.6 8.6 0 0 0 1.4-1.3l.6-.5 1.5-1.5a1.7 1.7 0 0 0 .4-2 10.6 10.6 0 0 0-1.8-2.7l-2.8-2.7-5.2-4.4a14.6 14.6 0 0 0-4.1-2.4 5.6 5.6 0 0 0-2.7-.5 4.3 4.3 0 0 0-2.2.9 23.9 23.9 0 0 0-2.6 2.1h-.1l-2 1.8h-.1l-.6.6-1.4 1.4a10.1 10.1 0 0 1-6.6 2.4 14.1 14.1 0 0 1-6.5-1.9 35.9 35.9 0 0 1-7.7-5.6c-2.3-2.2-4.6-4.7-7.1-7.6a57.5 57.5 0 0 1-5.9-8.5 21.3 21.3 0 0 1-2.7-7 12.4 12.4 0 0 1 .1-5.1 10.9 10.9 0 0 1 3.9-5.7l1.4-1a12.4 12.4 0 0 0 1.8-1.4l1.3-1.2 1.7-1.6a4.3 4.3 0 0 0 1.1-4 10.8 10.8 0 0 0-1.2-3.6 24.4 24.4 0 0 0-2.4-4.1l-.9-1.5a35.8 35.8 0 0 0-3.1-4.5 10.9 10.9 0 0 0-2.6-2.4 1.7 1.7 0 0 0-1-.3z"/></svg>