<svg xmlns="http://www.w3.org/2000/svg" width="2in" height="2in" viewBox="0 0 144 144"><path fill="#f5c23c" d="M124.9 40.5a4.6 4.6 0 0 0-3.8-1h-.7l-2.4.2a4.4 4.4 0 0 1 .9-1.1 13.7 13.7 0 0 0 1.9-3 3.5 3.5 0 0 0-.9-4.4c-1.4-1.2-2.6-.9-4.2-.4l-2.7 1a25 25 0 0 1-4.2 1.4c-.3.1-.4 0-.6-.2a24.4 24.4 0 0 0-26.3-3.7C72.5 34 67.7 41.7 67.7 52.1v.2l-.7-.2-4.5-.8a53.3 53.3 0 0 1-25.6-13.7c-1.3-1.2-2.5-2.5-3.7-3.8l-1.4-1.5a4 4 0 0 0-3.3-1.4 4 4 0 0 0-2.8 1.9A24.3 24.3 0 0 0 23.8 53a25.2 25.2 0 0 0 1.4 3.3 4.1 4.1 0 0 0-1.5.7 4 4 0 0 0-1.4 3.2 24.3 24.3 0 0 0 5.2 14.9c.9 1.1 1.9 2.1 2.8 3s.2.2.2.3-1.1 2.4-.5 4.2a24.6 24.6 0 0 0 13.2 14.2l-3.1 1.3a37.9 37.9 0 0 1-17.4 2.1 3.7 3.7 0 0 0-4.3 2.4l-.2.3v2.2l.4.4.3.4a5 5 0 0 0 1.3 1.2 62.6 62.6 0 0 0 29.4 9.7H54a65.4 65.4 0 0 0 13.1-1.3 59.7 59.7 0 0 0 34.1-20 64.1 64.1 0 0 0 15.5-42.2.7.7 0 0 1 .3-.6l1.2-.9A26.3 26.3 0 0 0 125 45a4.5 4.5 0 0 0 .7-1.8 2.9 2.9 0 0 0-.8-2.7zm-10.6 6.4l-.8.5c-1.8 1.1-3.8 2.7-3.8 5.8.1 15.9-5.9 29.8-17.7 41.4a51.2 51.2 0 0 1-28.4 14.1 56.3 56.3 0 0 1-15.8.5 49.4 49.4 0 0 1-11.2-2.4 45.6 45.6 0 0 0 18-8.4c2-1.5 2-3.1 1.6-4.2s-1.3-2.5-3.8-2.7a16.7 16.7 0 0 1-13-6.8l3.7-.6c2.1-.4 3.3-1.8 3.2-3.7s-.6-3-3.2-3.6c-6.3-1.7-10.5-5.4-12.5-11.5h.4l4 .6a3.6 3.6 0 0 0 3.9-2.6 3.7 3.7 0 0 0-1.6-4.2c-5.3-3.8-7.7-8.9-7.4-15.5a16.6 16.6 0 0 1 .3-2.2h.2l3.6 3.5a62.3 62.3 0 0 0 24.2 12.9A62.3 62.3 0 0 0 71.8 60a3.5 3.5 0 0 0 2.7-1.1 3.6 3.6 0 0 0 1-2.8 9.9 9.9 0 0 0-.2-1.7 5.9 5.9 0 0 1-.2-1.3 16.5 16.5 0 0 1 7.8-15.9c6.7-4.5 15-3.9 20.6 1.3h.1a7.1 7.1 0 0 0 5.6 1.3 10.7 10.7 0 0 0 2.7-1.2 8.6 8.6 0 0 1 3.1-1.3c-.4.9-1.8 2.3-4 4.3s-1.7 1.5-1.5 2.3l.2.6.4.3c.6.3 1 .2 2.4-.1 3.8-1 5.4-1 6.1-.8a23.2 23.2 0 0 1-4.3 3z"/></svg>