<svg xmlns="http://www.w3.org/2000/svg" width="2in" height="2in" viewBox="0 0 144 144"><path fill="#fff" d="M8.3 112.9a55.2 55.2 0 0 0 38.6-11.4 27.1 27.1 0 0 1-15.3-5.2 25.3 25.3 0 0 1-9.3-13.2 25.8 25.8 0 0 0 11.4-.4c-13-4-19.9-12.6-20.9-26.5a28 28 0 0 0 12 3.3 26.7 26.7 0 0 1-7.9-35.4c14.4 16.8 32.6 26.2 54.6 27.7-.1-1.4-.2-2.8-.4-4.2a26.4 26.4 0 0 1 24.5-28.3 13.4 13.4 0 0 1 4 0 25.7 25.7 0 0 1 16.3 7.2 2.6 2.6 0 0 0 2.6.7 56.3 56.3 0 0 0 15.3-6.1 27.4 27.4 0 0 1-10.9 14.5 50.8 50.8 0 0 0 14.2-3.9l.3.3c-2.1 2.6-4.3 5.1-6.5 7.5s-4 3.4-6 5.3a2.1 2.1 0 0 0-.7 1.5 77.2 77.2 0 0 1-14.3 46.9 70.4 70.4 0 0 1-43 29.1 78.8 78.8 0 0 1-28.2 1.5A74.8 74.8 0 0 1 9 113.1z"/></svg>